<?xml version="1.0" encoding="UTF-8"?>
<svg id="Layer_1" xmlns="http://www.w3.org/2000/svg" version="1.1" viewBox="0 0 827.26 306.67">
  <!-- Generator: Adobe Illustrator 29.2.0, SVG Export Plug-In . SVG Version: 2.1.0 Build 108)  -->
  <defs>
    <style>
      .st0 {
        fill: #02a584;
      }

      .st1 {
        fill: #e51a4b;
      }
    </style>
  </defs>
  <path class="st0" d="M802.46,298.64c-3.81,0-7.19-.83-10.13-2.48-2.94-1.65-5.25-3.93-6.92-6.82-1.67-2.9-2.51-6.23-2.51-10s.84-7.1,2.51-10c1.67-2.9,3.98-5.17,6.92-6.82,2.94-1.65,6.32-2.48,10.13-2.48,2.28,0,4.38.34,6.31,1.01,1.92.67,3.63,1.61,5.1,2.8,1.48,1.19,2.72,2.55,3.71,4.08l-5.99,3.73c-.61-.96-1.4-1.81-2.38-2.56-.98-.75-2.06-1.33-3.23-1.76-1.18-.43-2.35-.64-3.53-.64-2.35,0-4.44.54-6.25,1.63-1.82,1.08-3.24,2.57-4.28,4.45-1.03,1.88-1.55,4.07-1.55,6.56s.51,4.64,1.52,6.56c1.02,1.92,2.45,3.42,4.3,4.5,1.85,1.08,3.99,1.63,6.41,1.63,1.82,0,3.44-.35,4.86-1.04,1.42-.69,2.57-1.66,3.42-2.91.86-1.24,1.34-2.7,1.44-4.37h-8.66v-5.7h15.71v4.53c-.07,3.41-.84,6.32-2.3,8.72-1.46,2.4-3.46,4.23-5.99,5.49-2.53,1.26-5.42,1.89-8.66,1.89M742.55,298v-37.31h7.64l18.28,25.05v-25.05h7.27v37.31h-7.27l-18.6-25.53v25.53h-7.32ZM725.87,298v-37.31h7.32v37.31h-7.32ZM701.34,298v-30.65h-11.22v-6.66h29.72v6.66h-11.17v30.65h-7.32ZM650.89,298v-37.31h7.64l18.28,25.05v-25.05h7.27v37.31h-7.27l-18.6-25.53v25.53h-7.32ZM634.21,298v-37.31h7.32v37.31h-7.32ZM605.83,278.12h6.63c1.1,0,2.09-.23,2.97-.69.87-.46,1.57-1.1,2.08-1.92.52-.82.78-1.74.78-2.77,0-1.6-.58-2.9-1.74-3.89-1.16-1-2.65-1.49-4.46-1.49h-6.25v10.77ZM598.51,298v-37.31h13.9c2.64,0,4.97.52,7,1.55,2.03,1.03,3.62,2.44,4.76,4.24,1.14,1.8,1.71,3.88,1.71,6.26s-.66,4.61-1.98,6.48c-1.32,1.87-3.05,3.28-5.18,4.24l8.66,14.55h-8.29l-7.64-13.22h-5.61v13.22h-7.32ZM572.37,278.92h7c1.64,0,2.98-.54,4.04-1.63,1.05-1.08,1.58-2.48,1.58-4.18s-.58-3.09-1.74-4.16c-1.16-1.07-2.65-1.6-4.46-1.6h-6.41v11.57ZM565.05,298v-37.31h13.9c2.64,0,4.97.52,7,1.57,2.03,1.05,3.62,2.51,4.76,4.37,1.14,1.87,1.71,4.02,1.71,6.48s-.55,4.57-1.66,6.45-2.62,3.37-4.54,4.45c-1.92,1.08-4.15,1.63-6.68,1.63h-7.16v12.37h-7.32ZM521.01,291.18h4.65c1.71,0,3.3-.3,4.76-.91,1.46-.6,2.73-1.44,3.82-2.5,1.09-1.07,1.93-2.32,2.54-3.76.61-1.44.91-2.99.91-4.66s-.3-3.23-.91-4.66c-.61-1.44-1.45-2.69-2.54-3.76-1.09-1.07-2.36-1.9-3.82-2.51-1.46-.6-3.05-.91-4.76-.91h-4.65v23.67ZM513.69,298v-37.31h11.97c3.81,0,7.19.8,10.13,2.4,2.94,1.6,5.24,3.79,6.9,6.58,1.66,2.79,2.48,6.02,2.48,9.68s-.83,6.84-2.48,9.65c-1.66,2.81-3.96,5.01-6.9,6.61-2.94,1.6-6.32,2.4-10.13,2.4h-11.97ZM471.14,298v-37.31h7.64l18.28,25.05v-25.05h7.27v37.31h-7.27l-18.6-25.53v25.53h-7.32ZM444.95,291.98c2.28,0,4.28-.54,6.01-1.63s3.08-2.57,4.06-4.45,1.47-4.05,1.47-6.5-.5-4.67-1.5-6.56c-1-1.88-2.37-3.37-4.12-4.45-1.75-1.08-3.78-1.62-6.09-1.62s-4.25.54-6.01,1.62c-1.76,1.08-3.14,2.57-4.14,4.45-1,1.88-1.5,4.07-1.5,6.56s.5,4.62,1.5,6.5c1,1.88,2.39,3.37,4.17,4.45,1.78,1.08,3.83,1.63,6.15,1.63ZM444.95,298.64c-3.78,0-7.12-.83-10.02-2.48-2.9-1.65-5.18-3.93-6.82-6.82-1.64-2.9-2.46-6.21-2.46-9.94s.82-7.15,2.46-10.05c1.64-2.9,3.89-5.16,6.76-6.8,2.87-1.63,6.17-2.45,9.92-2.45s7.1.83,9.97,2.48c2.87,1.65,5.12,3.93,6.76,6.82,1.64,2.9,2.46,6.23,2.46,10s-.81,7.04-2.43,9.94c-1.62,2.9-3.87,5.17-6.73,6.82-2.87,1.65-6.16,2.48-9.86,2.48ZM401.6,298v-15.73l-13.25-21.59h8.34l8.55,14.29,8.6-14.29h8.34l-13.26,21.54v15.78h-7.32ZM359.33,298v-37.31h23.68v6.66h-16.36v8.48h14.11v6.5h-14.11v9.01h16.57v6.66h-23.89ZM332.55,275.88h5.67c1.6,0,2.87-.41,3.8-1.23.93-.82,1.39-1.97,1.39-3.46s-.52-2.65-1.55-3.46c-1.03-.82-2.44-1.23-4.22-1.23h-5.08v9.38ZM332.55,291.55h6.52c1.75,0,3.12-.43,4.11-1.31,1-.87,1.5-2.03,1.5-3.49s-.55-2.73-1.66-3.6c-1.1-.87-2.62-1.31-4.54-1.31h-5.93v9.7ZM325.39,298v-37.31h12.67c2.56,0,4.81.39,6.73,1.17,1.92.78,3.42,1.96,4.49,3.54,1.07,1.58,1.6,3.54,1.6,5.89,0,1.46-.37,2.8-1.1,4.02-.73,1.23-1.76,2.28-3.07,3.17,1.75.89,3.09,2.07,4.03,3.54.94,1.48,1.42,3.24,1.42,5.3,0,2.28-.52,4.21-1.55,5.81-1.03,1.6-2.48,2.81-4.33,3.63-1.85.82-4.03,1.23-6.52,1.23h-14.38Z"/>
  <polygon class="st1" points="168.51 179.95 168.51 234.08 7.41 234.08 7.41 8.03 165.64 8.03 165.64 62.15 69.49 62.15 69.49 93.99 257.1 93.99 257.1 144.29 69.49 144.29 69.49 179.95 168.51 179.95"/>
  <polygon class="st1" points="253.89 122.48 253.78 122.65 253.89 122.81 253.99 122.65 253.89 122.48"/>
  <path class="st0" d="M325.37,131.98l66.8,102.09h-66.86l-30.56-54.04,30.62-48.05ZM294.74,65.52l33.11-57.5h66.86l-69.31,105.28-30.66-47.79Z"/>
  <polygon class="st1" points="238.19 8.03 311.74 122.65 240.74 234.08 181.08 234.08 253.99 122.65 178.54 8.03 238.19 8.03"/>
  <path class="st0" d="M430.14,54.73h14.31c3.62,0,6.56-1,8.8-3,2.24-2,3.36-4.62,3.36-7.87s-1.12-5.72-3.36-7.72c-2.24-2-5.17-3-8.8-3h-14.31v21.6ZM403.67,109.09V8.95h41.48c7.53,0,14.21,1.48,20.03,4.43,5.82,2.96,10.37,7.06,13.66,12.3,3.29,5.25,4.94,11.3,4.94,18.17s-1.65,12.95-4.94,18.24c-3.29,5.29-7.84,9.44-13.66,12.45-5.82,3-12.49,4.51-20.03,4.51h-15.02v30.04h-26.46Z"/>
  <path class="st0" d="M519.55,53.02h13.59c2.38,0,4.48-.43,6.29-1.29,1.81-.86,3.24-2.05,4.29-3.58,1.05-1.53,1.57-3.24,1.57-5.15,0-2.86-1.12-5.22-3.36-7.08-2.24-1.86-5.17-2.79-8.8-2.79h-13.59v19.88ZM493.08,109.09V8.95h41.48c7.53,0,14.21,1.46,20.03,4.36,5.82,2.91,10.37,6.91,13.66,12.02,3.29,5.1,4.94,10.99,4.94,17.67s-1.62,12.45-4.86,17.6c-3.24,5.15-7.63,9.16-13.16,12.02l22.03,36.48h-30.33l-18.02-31.76h-9.3v31.76h-26.46Z"/>
  <rect class="st0" x="587.92" y="8.95" width="26.46" height="100.14"/>
  <polygon class="st0" points="631.55 109.09 631.55 8.95 659.45 8.95 698.5 64.03 698.5 8.95 724.97 8.95 724.97 109.09 698.5 109.09 658.02 52.01 658.02 109.09 631.55 109.09"/>
  <polygon class="st0" points="764.31 109.09 764.31 33.27 735.98 33.27 735.98 8.95 818.95 8.95 818.95 33.27 790.77 33.27 790.77 109.09 764.31 109.09"/>
  <polygon class="st0" points="403.67 233.74 403.67 133.6 433 133.6 457.17 169.37 481.35 133.6 510.68 133.6 510.68 233.74 484.21 233.74 484.21 174.52 457.32 213.71 430.14 174.52 430.14 233.74 403.67 233.74"/>
  <path class="st0" d="M565.18,194.4h20.17l-10.01-27.75-10.16,27.75ZM522.69,233.74l38.34-100.14h28.47l38.34,100.14h-28.04l-5.87-16.02h-37.34l-5.87,16.02h-28.04Z"/>
  <path class="st0" d="M666.32,177.66h13.59c2.38,0,4.48-.43,6.29-1.29,1.81-.86,3.24-2.05,4.29-3.58,1.05-1.53,1.57-3.24,1.57-5.15,0-2.86-1.12-5.22-3.36-7.08-2.24-1.86-5.17-2.79-8.8-2.79h-13.59v19.88ZM639.85,233.74v-100.14h41.48c7.53,0,14.21,1.46,20.03,4.36,5.82,2.91,10.37,6.91,13.66,12.02,3.29,5.1,4.94,10.99,4.94,17.67s-1.62,12.45-4.86,17.6c-3.24,5.15-7.63,9.16-13.16,12.02l22.03,36.48h-30.33l-18.02-31.76h-9.3v31.76h-26.46Z"/>
  <polygon class="st0" points="764.31 233.74 764.31 157.92 735.98 157.92 735.98 133.6 818.95 133.6 818.95 157.92 790.77 157.92 790.77 233.74 764.31 233.74"/>
</svg>